<?xml version="1.0" encoding="UTF-8" standalone="no"?>
<svg id="svg2" xmlns:rdf="http://www.w3.org/1999/02/22-rdf-syntax-ns#" xmlns="http://www.w3.org/2000/svg" height="144.5mm" width="144.5mm" version="1.1" xmlns:cc="http://creativecommons.org/ns#" xmlns:dc="http://purl.org/dc/elements/1.1/" viewBox="0 0 511.99998 511.99998">
 <title id="title3343">icon-search.svg</title>
 <g id="layer1" transform="translate(0 -540.36)">
  <path id="circle3340-4" d="m221.24 60.762a160 160 0 0 0 -160 160 160 160 0 0 0 160 160 160 160 0 0 0 89.31 -27.31l88.97 88.97c11.75 11.76 30.68 11.76 42.43 0 11.75-11.75 11.75-30.67 0-42.42l-88.88-88.88a160 160 0 0 0 28.17 -90.36 160 160 0 0 0 -160 -160zm0 49.998a110 110 0 0 1 110 110 110 110 0 0 1 -110 110 110 110 0 0 1 -110 -110 110 110 0 0 1 110 -110z" transform="translate(0 540.36)"/>
 </g>
</svg>
